<svg id="rooms" xmlns:rdf="http://www.w3.org/1999/02/22-rdf-syntax-ns#" xmlns="http://www.w3.org/2000/svg" height="1500" viewBox="0 0 2400 1500" width="2400" version="1.1" xmlns:cc="http://creativecommons.org/ns#" xmlns:xlink="http://www.w3.org/1999/xlink" xmlns:dc="http://purl.org/dc/elements/1.1/">
  <filter id="blur">
    <feGaussianBlur stdDeviation="1"/>
  </filter>
  <path id="argenterie_layer" d="m712.74 876.28c5.2716 3.8339 7.7861 3.5893 7.7861 3.5893l9.1054 2.3962 10.304 1.9169 11.981 1.6773 13.419.4792 15.335-.2396 15.575-.4792 9.345-.4792 9.713-.8181 6.3413-.8593 1.9169-1.9049 7.3459-.3509 6.3122-1.0988 6.9489-.7188 4.0735-.7189 5.5112-.9584 5.032-.9585 3.5942-1.4377-.23962 51.997-4.7923-2.6358-3.3546-1.9169-5.9904-1.9169-3.3546-1.1981-6.7093-.9585-8.6262-1.9169-5.2716-.7188-15.083.099-16.541-.4793-11.878.733-8.2176.8471-9.9119.9319-9.9119 1.186-9.4036 1.2708-4.9136.8472-5.4219 1.186-6.4807 1.7646-7.4281 3.3546-6.23 3.5942z" style="opacity:.5;fill-rule:evenodd;filter:url(#blur);stroke:#000000;stroke-width:1px;fill:#ee8811" class="room-layer"/>
  <path id="lingerie_layer" d="m543.42 505.87h80.481l-22.196 77.601-86.073.16944.16943-21.518-4.4053-4.0664-4.5747-.16943z" style="opacity:.5;fill-rule:evenodd;filter:url(#blur);stroke:#000000;stroke-width:1px;fill:#ee8811" class="room-layer"/>
  <path id="salle_de_bain_layer" d="m771.14 539.59 6.4385-.5083 7.1162-.33887h9.8272l11.522-.16944 12.199.33887 10.674 1.3555 11.183 1.186 4.2359.5083 3.897.84718 4.0664.84717 4.9136 1.186 5.083 1.5249 5.083 1.3555-.67774 3.2192-2.2026 3.3887-2.2026 3.2193-1.8638 2.5415-1.3555 2.8804-.33887 4.4053.33887 3.5581 1.8638 2.8804 1.6943 2.711.33887 3.2192-.16943 4.0664.16943 10.505-.33887 26.262-1.3555 1.0166-5.7608-2.2026-8.6412-2.3721-8.4717-1.5249-8.4717-.84717-14.91-.67774-20.332-.33887h-10.505l-2.0332.67774-11.183-.000010z" style="opacity:.5;fill-rule:evenodd;filter:url(#blur);stroke:#000000;stroke-width:1px;fill:#ee8811" class="room-layer"/>
  <path id="chambre_layer" d="m1262 538.18 70.807.35942 10.064 66.733-77.037-.23962z" style="opacity:.5;fill-rule:evenodd;filter:url(#blur);stroke:#000000;stroke-width:1px;fill:#ee8811" class="room-layer"/>
  <path id="salle_de_reunion_layer" d="m1886 1094.8 72.518 38.97h7.1163l10.166 3.3887 11.183 3.3887 10.844 3.3887 12.199 4.0664 9.8272 2.372 9.8272 2.3722 11.183 1.3554 12.199 2.0332 10.166 2.711 24.398 3.7276 25.076 1.0166 32.531-.6778 13.216-1.0166 11.522-3.3887 8.8106-3.0498 13.216-6.0996 7.1163-5.7608 2.0332-3.7276-.3389-3.0498v-4.4053l-2.3721-5.083-2.7109-2.0332 1.6943-79.295-9.1494 3.3887-6.4386 1.3555-11.522 2.0332-15.249 2.0332-15.927 1.0166-12.199.3389-16.266-1.0166-11.522-1.0166-12.877-.6778-9.4884-1.0166-11.183-1.6943-13.894-2.0333-12.538-3.0498-11.183-3.0498-15.588-4.0664-10.505-3.7276-10.166-3.3887-15.249-6.0996-10.166-4.7442-79.634-.6778z" style="opacity:.5;fill-rule:evenodd;filter:url(#blur);stroke:#000000;stroke-width:1px;fill:#ee8811" class="room-layer"/>
  <path id="salle_a_manger_layer" d="m1074.2 1154 25.16-52.236-.7189-49.121 1.1981-2.1566 3.5942-1.1981-.2396-23.962 206.31.7189.4793 59.185 8.3865-.2397 6.4697 7.9074-.7189 32.348 12.7 30.192z" style="opacity:.5;fill-rule:evenodd;filter:url(#blur);stroke:#000000;stroke-width:1px;fill:#ee8811" class="room-layer"/>
  <path id="grande_cuisine_layer" d="m786.38 1058.9.33887 43.714-5.7608 4.7442-.33887 1.6943-8.8106 6.0997h-2.3721l-29.82 18.638-19.993 3.3887-199.59-2.711 46.086-28.804 1.3555-50.492.67773-3.3887 2.711-4.7442 4.7442-3.3887h3.3887l2.711 3.7276 1.0166 2.3721.33887-17.96h117.93v6.4385l5.4219 4.0664 8.1329 5.0831 6.4385 2.3721 10.166 3.3886 9.4883 2.711 7.1162 2.0332 5.7608.6778 9.8272.6777 7.794.3389z" style="opacity:.5;fill-rule:evenodd;filter:url(#blur);stroke:#000000;stroke-width:1px;fill:#ee8811" class="room-layer"/>
  <path id="salle_des_fermiers_layer" d="m139.94 1053.6.47924 97.764 8.6262 5.7508 9.5847 5.2716 10.543 3.3546 11.502 3.8339 9.1054.9585 12.46 2.3961 16.294 3.3547 14.856 2.3961 12.939.4793 11.022-.4792 9.5847-1.4378 7.1885-.4792 15.815-.4792 12.939-2.8755 20.607-6.2299 22.045-8.147 14.856-7.6678 13.898-6.7092 14.377-8.6262 11.022-7.6678 14.377-7.6677 16.294-9.1054 26.837-15.336v-66.613l-51.757.4792-11.022 6.2301-17.252 7.6677-14.856 5.2716-23.962 7.1885-17.732 3.8338-26.837 3.8339-22.045 2.3962-15.815 1.4377-24.92 1.9169-19.649-.4792-22.045-3.3547-24.92-5.2715-12.46-2.3962z" style="opacity:.5;fill-rule:evenodd;filter:url(#blur);stroke:#000000;stroke-width:1px;fill:#ee8811" class="room-layer"/>
</svg>
